<?xml version="1.0" ?><!DOCTYPE svg  PUBLIC '-//W3C//DTD SVG 1.1//EN'  'http://www.w3.org/Graphics/SVG/1.1/DTD/svg11.dtd'><svg height="100mm" style="shape-rendering:geometricPrecision; text-rendering:geometricPrecision; image-rendering:optimizeQuality; fill-rule:evenodd; clip-rule:evenodd" viewBox="0 0 100 100" width="100mm" xml:space="preserve" xmlns="http://www.w3.org/2000/svg" xmlns:xlink="http://www.w3.org/1999/xlink"><defs><style type="text/css">
   <![CDATA[
    .fil0 {fill:#008DD2}
   ]]>
  </style></defs><g id="Ebene_x0020_1"><path class="fil0" d="M39.5836 81.2497l13.0209 0 0 -23.5497c0,-1.2601 0.0872,-2.5206 0.4402,-3.4195 0.9665,-2.5193 4.3671,-5.1283 8.0603,-5.1283 4.8396,0 7.1241,3.8692 7.1241,9.5367l0.0002 22.561 13.0206 -0.0002 0 -24.18c0,-12.9531 -6.5962,-18.9797 -15.3944,-18.9797 -7.2138,-0.0002 -11.5803,4.2269 -13.3396,7.1049l0.0886 0 0.0164 -5.6118 -13.021 0c0.1754,3.9565 -0.0163,41.6666 -0.0163,41.6666l0 0zm-14.3611 -49.479c4.0356,0 6.5481,-2.8954 6.5481,-6.5107 -0.0748,-3.6963 -2.5125,-6.5099 -6.4718,-6.5099 -3.9601,0 -6.5486,2.8138 -6.5486,6.5099 0,3.6153 2.5122,6.5107 6.3968,6.5107l0.0755 0zm6.5325 49.479l0.016 -41.6666 -13.0048 0 -0.016 41.6666 13.0048 0z"/></g></svg>